<mxfile host="Electron" modified="2023-12-23T11:17:07.763Z" agent="Mozilla/5.0 (Windows NT 10.0; Win64; x64) AppleWebKit/537.36 (KHTML, like Gecko) draw.io/22.1.2 Chrome/114.0.5735.289 Electron/25.9.4 Safari/537.36" etag="ue9drpFPXwW-tm6oexfc" version="22.1.2" type="device">
  <diagram id="OQ9CddM-hfgQPHA02e66" name="Page-1">
    <mxGraphModel dx="2302" dy="1316" grid="1" gridSize="10" guides="1" tooltips="1" connect="1" arrows="1" fold="1" page="1" pageScale="1" pageWidth="827" pageHeight="1169" math="0" shadow="0">
      <root>
        <mxCell id="0" />
        <mxCell id="1" parent="0" />
        <mxCell id="i-3n_3hnF3vpz_gC9HeC-1" value="" style="rounded=0;whiteSpace=wrap;html=1;" vertex="1" parent="1">
          <mxGeometry x="480" y="120" width="1050" height="800" as="geometry" />
        </mxCell>
        <mxCell id="i-3n_3hnF3vpz_gC9HeC-2" value="registry-service" style="rounded=0;whiteSpace=wrap;html=1;" vertex="1" parent="1">
          <mxGeometry x="600" y="200" width="120" height="60" as="geometry" />
        </mxCell>
        <mxCell id="i-3n_3hnF3vpz_gC9HeC-3" value="gateway-service" style="rounded=0;whiteSpace=wrap;html=1;" vertex="1" parent="1">
          <mxGeometry x="600" y="320" width="120" height="350" as="geometry" />
        </mxCell>
        <mxCell id="i-3n_3hnF3vpz_gC9HeC-4" value="authentication-service" style="rounded=0;whiteSpace=wrap;html=1;" vertex="1" parent="1">
          <mxGeometry x="720" y="750" width="120" height="60" as="geometry" />
        </mxCell>
        <mxCell id="i-3n_3hnF3vpz_gC9HeC-5" value="usermanagement-service" style="rounded=0;whiteSpace=wrap;html=1;" vertex="1" parent="1">
          <mxGeometry x="880" y="340" width="120" height="60" as="geometry" />
        </mxCell>
        <mxCell id="i-3n_3hnF3vpz_gC9HeC-6" value="javadoc-service" style="rounded=0;whiteSpace=wrap;html=1;" vertex="1" parent="1">
          <mxGeometry x="880" y="460" width="120" height="60" as="geometry" />
        </mxCell>
        <mxCell id="i-3n_3hnF3vpz_gC9HeC-7" value="" style="rounded=0;whiteSpace=wrap;html=1;" vertex="1" parent="1">
          <mxGeometry x="880" y="590" width="120" height="60" as="geometry" />
        </mxCell>
        <mxCell id="i-3n_3hnF3vpz_gC9HeC-10" value="" style="rounded=0;whiteSpace=wrap;html=1;" vertex="1" parent="1">
          <mxGeometry x="480" y="1000" width="1050" height="800" as="geometry" />
        </mxCell>
        <mxCell id="i-3n_3hnF3vpz_gC9HeC-11" value="registry-service" style="rounded=0;whiteSpace=wrap;html=1;" vertex="1" parent="1">
          <mxGeometry x="600" y="1080" width="120" height="60" as="geometry" />
        </mxCell>
        <mxCell id="i-3n_3hnF3vpz_gC9HeC-19" style="edgeStyle=orthogonalEdgeStyle;rounded=0;orthogonalLoop=1;jettySize=auto;html=1;" edge="1" parent="1" source="i-3n_3hnF3vpz_gC9HeC-12" target="i-3n_3hnF3vpz_gC9HeC-13">
          <mxGeometry relative="1" as="geometry" />
        </mxCell>
        <mxCell id="i-3n_3hnF3vpz_gC9HeC-12" value="gateway-service" style="rounded=0;whiteSpace=wrap;html=1;" vertex="1" parent="1">
          <mxGeometry x="600" y="1200" width="120" height="350" as="geometry" />
        </mxCell>
        <mxCell id="i-3n_3hnF3vpz_gC9HeC-13" value="authentication-service" style="rounded=0;whiteSpace=wrap;html=1;" vertex="1" parent="1">
          <mxGeometry x="720" y="1630" width="120" height="60" as="geometry" />
        </mxCell>
        <mxCell id="i-3n_3hnF3vpz_gC9HeC-14" value="usermanagement-service" style="rounded=0;whiteSpace=wrap;html=1;" vertex="1" parent="1">
          <mxGeometry x="880" y="1220" width="120" height="60" as="geometry" />
        </mxCell>
        <mxCell id="i-3n_3hnF3vpz_gC9HeC-15" value="javadoc-service" style="rounded=0;whiteSpace=wrap;html=1;" vertex="1" parent="1">
          <mxGeometry x="880" y="1340" width="120" height="60" as="geometry" />
        </mxCell>
        <mxCell id="i-3n_3hnF3vpz_gC9HeC-16" value="" style="rounded=0;whiteSpace=wrap;html=1;" vertex="1" parent="1">
          <mxGeometry x="880" y="1470" width="120" height="60" as="geometry" />
        </mxCell>
        <mxCell id="i-3n_3hnF3vpz_gC9HeC-18" style="edgeStyle=orthogonalEdgeStyle;rounded=0;orthogonalLoop=1;jettySize=auto;html=1;" edge="1" parent="1" source="i-3n_3hnF3vpz_gC9HeC-17" target="i-3n_3hnF3vpz_gC9HeC-12">
          <mxGeometry relative="1" as="geometry" />
        </mxCell>
        <mxCell id="i-3n_3hnF3vpz_gC9HeC-17" value="Actor" style="shape=umlActor;verticalLabelPosition=bottom;verticalAlign=top;html=1;outlineConnect=0;" vertex="1" parent="1">
          <mxGeometry x="384" y="1345" width="30" height="60" as="geometry" />
        </mxCell>
      </root>
    </mxGraphModel>
  </diagram>
</mxfile>
